<svg xmlns="http://www.w3.org/2000/svg" xmlns:xlink="http://www.w3.org/1999/xlink" width="800" zoomAndPan="magnify" viewBox="0 0 600 599.999999" height="800" preserveAspectRatio="xMidYMid meet" version="1.0"><defs><filter x="0%" y="0%" width="100%" height="100%" id="dc75cc2855"><feColorMatrix values="0 0 0 0 1 0 0 0 0 1 0 0 0 0 1 0 0 0 1 0" color-interpolation-filters="sRGB"/></filter><clipPath id="919fdfc06a"><path d="M 41.59375 41.59375 L 558.40625 41.59375 L 558.40625 558.40625 L 41.59375 558.40625 Z M 41.59375 41.59375 " clip-rule="nonzero"/></clipPath><clipPath id="0fb06d9ec5"><path d="M 300 41.59375 C 157.285156 41.59375 41.59375 157.285156 41.59375 300 C 41.59375 442.714844 157.285156 558.40625 300 558.40625 C 442.714844 558.40625 558.40625 442.714844 558.40625 300 C 558.40625 157.285156 442.714844 41.59375 300 41.59375 Z M 300 41.59375 " clip-rule="nonzero"/></clipPath><clipPath id="85f48790ee"><path d="M 0.59375 0.59375 L 517.40625 0.59375 L 517.40625 517.40625 L 0.59375 517.40625 Z M 0.59375 0.59375 " clip-rule="nonzero"/></clipPath><clipPath id="37dea3d74f"><path d="M 259 0.59375 C 116.285156 0.59375 0.59375 116.285156 0.59375 259 C 0.59375 401.714844 116.285156 517.40625 259 517.40625 C 401.714844 517.40625 517.40625 401.714844 517.40625 259 C 517.40625 116.285156 401.714844 0.59375 259 0.59375 Z M 259 0.59375 " clip-rule="nonzero"/></clipPath><clipPath id="c01309cca3"><rect x="0" width="518" y="0" height="518"/></clipPath><clipPath id="8448e30188"><path d="M 267 131 L 528 131 L 528 402 L 267 402 Z M 267 131 " clip-rule="nonzero"/></clipPath><clipPath id="f0ec10f9f2"><path d="M 455.835938 129.503906 L 529.296875 197.667969 L 338.914062 402.835938 L 265.457031 334.671875 Z M 455.835938 129.503906 " clip-rule="nonzero"/></clipPath><clipPath id="aad7c70899"><path d="M 458.585938 132.054688 L 526.546875 195.117188 C 527.277344 195.792969 527.707031 196.730469 527.742188 197.726562 C 527.78125 198.71875 527.421875 199.6875 526.746094 200.417969 L 341.519531 400.03125 C 340.84375 400.757812 339.90625 401.1875 338.910156 401.226562 C 337.917969 401.261719 336.949219 400.90625 336.21875 400.226562 L 268.257812 337.164062 C 267.527344 336.488281 267.097656 335.550781 267.0625 334.554688 C 267.023438 333.5625 267.382812 332.59375 268.058594 331.867188 L 453.285156 132.25 C 453.960938 131.523438 454.902344 131.09375 455.894531 131.054688 C 456.886719 131.019531 457.855469 131.378906 458.585938 132.054688 Z M 458.585938 132.054688 " clip-rule="nonzero"/></clipPath><clipPath id="d4526a8c7d"><path d="M 0 0 L 261 0 L 261 270.28125 L 0 270.28125 Z M 0 0 " clip-rule="nonzero"/></clipPath><clipPath id="9585ee24db"><path d="M 188.835938 -1.496094 L 262.296875 66.667969 L 71.914062 271.835938 L -1.542969 203.671875 Z M 188.835938 -1.496094 " clip-rule="nonzero"/></clipPath><clipPath id="4832420300"><path d="M 191.585938 1.054688 L 259.546875 64.117188 C 260.277344 64.792969 260.707031 65.730469 260.742188 66.726562 C 260.78125 67.71875 260.421875 68.6875 259.746094 69.417969 L 74.519531 269.03125 C 73.84375 269.757812 72.90625 270.1875 71.910156 270.226562 C 70.917969 270.261719 69.949219 269.90625 69.21875 269.226562 L 1.257812 206.164062 C 0.527344 205.488281 0.0976562 204.550781 0.0625 203.554688 C 0.0234375 202.5625 0.382812 201.59375 1.058594 200.867188 L 186.285156 1.25 C 186.960938 0.523438 187.902344 0.09375 188.894531 0.0546875 C 189.886719 0.0195312 190.855469 0.378906 191.585938 1.054688 Z M 191.585938 1.054688 " clip-rule="nonzero"/></clipPath><clipPath id="dd5c45a8c7"><rect x="0" width="261" y="0" height="271"/></clipPath><clipPath id="0aab99a076"><path d="M 317 108 L 549 108 L 549 347 L 317 347 Z M 317 108 " clip-rule="nonzero"/></clipPath><clipPath id="bde66b5f3f"><path d="M 476.226562 107.546875 L 549.558594 175.59375 L 390.074219 347.464844 L 316.742188 279.417969 Z M 476.226562 107.546875 " clip-rule="nonzero"/></clipPath><clipPath id="8185ef1f40"><path d="M 477.328125 108.566406 L 548.460938 174.574219 C 549.066406 175.136719 549.101562 176.085938 548.539062 176.691406 L 391.316406 346.128906 C 390.753906 346.734375 389.804688 346.769531 389.195312 346.207031 L 318.0625 280.199219 C 317.457031 279.636719 317.421875 278.6875 317.984375 278.082031 L 475.207031 108.644531 C 475.769531 108.039062 476.71875 108.003906 477.328125 108.566406 Z M 477.328125 108.566406 " clip-rule="nonzero"/></clipPath><clipPath id="4e57327922"><path d="M 0.28125 0 L 232 0 L 232 238.800781 L 0.28125 238.800781 Z M 0.28125 0 " clip-rule="nonzero"/></clipPath><clipPath id="a3f175fffd"><path d="M 159.226562 -0.453125 L 232.558594 67.59375 L 73.074219 239.464844 L -0.257812 171.417969 Z M 159.226562 -0.453125 " clip-rule="nonzero"/></clipPath><clipPath id="f0757cc39d"><path d="M 160.328125 0.566406 L 231.460938 66.574219 C 232.066406 67.136719 232.101562 68.085938 231.539062 68.691406 L 74.316406 238.128906 C 73.753906 238.734375 72.804688 238.769531 72.195312 238.207031 L 1.0625 172.199219 C 0.457031 171.636719 0.421875 170.6875 0.984375 170.082031 L 158.207031 0.644531 C 158.769531 0.0390625 159.71875 0.00390625 160.328125 0.566406 Z M 160.328125 0.566406 " clip-rule="nonzero"/></clipPath><clipPath id="2d902a54a6"><rect x="0" width="232" y="0" height="239"/></clipPath><clipPath id="7b968aa7a4"><path d="M 381 73 L 579 73 L 579 278 L 381 278 Z M 381 73 " clip-rule="nonzero"/></clipPath><clipPath id="25c0e06986"><path d="M 380.558594 136.515625 L 578.757812 72.574219 L 634.539062 245.484375 L 436.34375 309.425781 Z M 380.558594 136.515625 " clip-rule="nonzero"/></clipPath><clipPath id="1971a4c13f"><path d="M 533.101562 277.054688 L 381.964844 139.480469 C 381.394531 138.957031 381.140625 138.171875 381.304688 137.414062 C 381.46875 136.65625 382.023438 136.042969 382.761719 135.804688 L 576.097656 73.433594 C 576.835938 73.195312 577.644531 73.367188 578.222656 73.886719 C 578.796875 74.40625 579.054688 75.191406 578.894531 75.949219 L 536.648438 275.910156 C 536.488281 276.664062 535.941406 277.273438 535.207031 277.511719 C 534.472656 277.746094 533.671875 277.574219 533.101562 277.054688 Z M 533.101562 277.054688 " clip-rule="nonzero"/></clipPath><clipPath id="385f2e94c1"><path d="M 0.121094 0 L 198 0 L 198 204.921875 L 0.121094 204.921875 Z M 0.121094 0 " clip-rule="nonzero"/></clipPath><clipPath id="55e684478c"><path d="M -0.441406 63.515625 L 197.757812 -0.425781 L 253.539062 172.484375 L 55.34375 236.425781 Z M -0.441406 63.515625 " clip-rule="nonzero"/></clipPath><clipPath id="2ba59cd91b"><path d="M 152.101562 204.054688 L 0.964844 66.480469 C 0.394531 65.957031 0.140625 65.171875 0.304688 64.414062 C 0.46875 63.65625 1.023438 63.042969 1.761719 62.804688 L 195.097656 0.433594 C 195.835938 0.195312 196.644531 0.367188 197.222656 0.886719 C 197.796875 1.40625 198.054688 2.191406 197.894531 2.949219 L 155.648438 202.910156 C 155.488281 203.664062 154.941406 204.273438 154.207031 204.511719 C 153.472656 204.746094 152.671875 204.574219 152.101562 204.054688 Z M 152.101562 204.054688 " clip-rule="nonzero"/></clipPath><clipPath id="4149fee478"><rect x="0" width="198" y="0" height="205"/></clipPath><clipPath id="73a5728f47"><path d="M 9 272 L 240 272 L 240 510 L 9 510 Z M 9 272 " clip-rule="nonzero"/></clipPath><clipPath id="76f0ab3dcc"><path d="M 167.511719 270.9375 L 240.84375 338.984375 L 81.359375 510.859375 L 8.027344 442.8125 Z M 167.511719 270.9375 " clip-rule="nonzero"/></clipPath><clipPath id="a887777230"><path d="M 170.261719 273.488281 L 238.09375 336.433594 C 238.824219 337.113281 239.253906 338.050781 239.292969 339.042969 C 239.328125 340.039062 238.96875 341.007812 238.292969 341.734375 L 84.132812 507.871094 C 83.453125 508.601562 82.515625 509.03125 81.523438 509.066406 C 80.527344 509.105469 79.558594 508.746094 78.832031 508.070312 L 10.996094 445.125 C 10.269531 444.449219 9.835938 443.507812 9.800781 442.515625 C 9.761719 441.523438 10.121094 440.554688 10.796875 439.824219 L 164.960938 273.6875 C 165.636719 272.960938 166.574219 272.527344 167.570312 272.492188 C 168.5625 272.453125 169.53125 272.8125 170.261719 273.488281 Z M 170.261719 273.488281 " clip-rule="nonzero"/></clipPath><clipPath id="9fad1e5963"><path d="M 0.601562 0.398438 L 230.519531 0.398438 L 230.519531 237.28125 L 0.601562 237.28125 Z M 0.601562 0.398438 " clip-rule="nonzero"/></clipPath><clipPath id="d88a5be019"><path d="M 158.511719 -1.0625 L 231.84375 66.984375 L 72.359375 238.859375 L -0.972656 170.8125 Z M 158.511719 -1.0625 " clip-rule="nonzero"/></clipPath><clipPath id="79ada52101"><path d="M 161.261719 1.488281 L 229.09375 64.433594 C 229.824219 65.113281 230.253906 66.050781 230.292969 67.042969 C 230.328125 68.039062 229.96875 69.007812 229.292969 69.734375 L 75.132812 235.871094 C 74.453125 236.601562 73.515625 237.03125 72.523438 237.066406 C 71.527344 237.105469 70.558594 236.746094 69.832031 236.070312 L 1.996094 173.125 C 1.269531 172.449219 0.835938 171.507812 0.800781 170.515625 C 0.761719 169.523438 1.121094 168.554688 1.796875 167.824219 L 155.960938 1.6875 C 156.636719 0.960938 157.574219 0.527344 158.570312 0.492188 C 159.5625 0.453125 160.53125 0.8125 161.261719 1.488281 Z M 161.261719 1.488281 " clip-rule="nonzero"/></clipPath><clipPath id="0395cc93c7"><rect x="0" width="231" y="0" height="238"/></clipPath><clipPath id="87ebec2815"><path d="M 165 203 L 389 203 L 389 421 L 165 421 Z M 165 203 " clip-rule="nonzero"/></clipPath><clipPath id="fdfdc8b1f7"><path d="M 164.046875 274.253906 L 231.386719 201.835938 L 390.078125 349.40625 L 322.738281 421.820312 Z M 164.046875 274.253906 " clip-rule="nonzero"/></clipPath><clipPath id="eca7ecb181"><path d="M 166.601562 271.507812 L 228.832031 204.582031 C 229.511719 203.855469 230.449219 203.425781 231.441406 203.390625 C 232.4375 203.355469 233.402344 203.714844 234.132812 204.390625 L 387.132812 346.671875 C 387.863281 347.347656 388.292969 348.285156 388.328125 349.28125 C 388.363281 350.273438 388.003906 351.242188 387.328125 351.96875 L 325.09375 418.894531 C 324.417969 419.621094 323.476562 420.050781 322.484375 420.085938 C 321.488281 420.125 320.523438 419.761719 319.792969 419.085938 L 166.792969 276.804688 C 166.0625 276.128906 165.632812 275.191406 165.597656 274.195312 C 165.5625 273.203125 165.921875 272.234375 166.601562 271.507812 Z M 166.601562 271.507812 " clip-rule="nonzero"/></clipPath><clipPath id="bf785fc921"><path d="M 0.359375 0.28125 L 223.558594 0.28125 L 223.558594 217.238281 L 0.359375 217.238281 Z M 0.359375 0.28125 " clip-rule="nonzero"/></clipPath><clipPath id="0439bd39f7"><path d="M -0.953125 71.253906 L 66.386719 -1.164062 L 225.078125 146.40625 L 157.738281 218.820312 Z M -0.953125 71.253906 " clip-rule="nonzero"/></clipPath><clipPath id="6fa437ed68"><path d="M 1.601562 68.507812 L 63.832031 1.582031 C 64.511719 0.855469 65.449219 0.425781 66.441406 0.390625 C 67.4375 0.355469 68.402344 0.714844 69.132812 1.390625 L 222.132812 143.671875 C 222.863281 144.347656 223.292969 145.285156 223.328125 146.28125 C 223.363281 147.273438 223.003906 148.242188 222.328125 148.96875 L 160.09375 215.894531 C 159.417969 216.621094 158.476562 217.050781 157.484375 217.085938 C 156.488281 217.125 155.523438 216.761719 154.792969 216.085938 L 1.792969 73.804688 C 1.0625 73.128906 0.632812 72.191406 0.597656 71.195312 C 0.5625 70.203125 0.921875 69.234375 1.601562 68.507812 Z M 1.601562 68.507812 " clip-rule="nonzero"/></clipPath><clipPath id="c7fcfd4c11"><rect x="0" width="224" y="0" height="218"/></clipPath><mask id="4873d35859"><g filter="url(#dc75cc2855)"><rect x="-60" width="720" fill="#000000" y="-60" height="719.999999" fill-opacity="0.76"/></g></mask><clipPath id="4c5055a749"><path d="M 1 1 L 147 1 L 147 147.921875 L 1 147.921875 Z M 1 1 " clip-rule="nonzero"/></clipPath><clipPath id="aac2141816"><path d="M 73.972656 0.472656 L 147.425781 68.632812 L 73.941406 147.824219 L 0.488281 79.664062 Z M 73.972656 0.472656 " clip-rule="nonzero"/></clipPath><clipPath id="dfa395e7cf"><path d="M 75.074219 1.492188 L 146.328125 67.613281 C 146.933594 68.175781 146.96875 69.125 146.40625 69.730469 L 75.128906 146.546875 C 74.566406 147.152344 73.617188 147.1875 73.007812 146.625 L 1.753906 80.507812 C 1.144531 79.941406 1.109375 78.992188 1.675781 78.386719 L 72.953125 1.570312 C 73.515625 0.964844 74.464844 0.929688 75.074219 1.492188 Z M 75.074219 1.492188 " clip-rule="nonzero"/></clipPath><clipPath id="67920cc809"><path d="M 0 0 L 146 0 L 146 146.199219 L 0 146.199219 Z M 0 0 " clip-rule="nonzero"/></clipPath><clipPath id="c5b8d15572"><path d="M 72.972656 -0.527344 L 146.425781 67.632812 L 72.941406 146.824219 L -0.511719 78.664062 Z M 72.972656 -0.527344 " clip-rule="nonzero"/></clipPath><clipPath id="2f6a5b0dc9"><path d="M 74.074219 0.492188 L 145.328125 66.613281 C 145.933594 67.175781 145.96875 68.125 145.40625 68.730469 L 74.128906 145.546875 C 73.566406 146.152344 72.617188 146.1875 72.007812 145.625 L 0.753906 79.507812 C 0.144531 78.941406 0.109375 77.992188 0.675781 77.386719 L 71.953125 0.570312 C 72.515625 -0.0351562 73.464844 -0.0703125 74.074219 0.492188 Z M 74.074219 0.492188 " clip-rule="nonzero"/></clipPath><clipPath id="0ed6cb063b"><rect x="0" width="146" y="0" height="147"/></clipPath><clipPath id="dc4276cdf7"><rect x="0" width="148" y="0" height="148"/></clipPath><mask id="8d7ba3cd31"><g filter="url(#dc75cc2855)"><rect x="-60" width="720" fill="#000000" y="-60" height="719.999999" fill-opacity="0.28"/></g></mask><clipPath id="d073dc95e2"><path d="M 0.160156 1 L 115 1 L 115 113 L 0.160156 113 Z M 0.160156 1 " clip-rule="nonzero"/></clipPath><clipPath id="de4daa1adc"><path d="M 42.09375 0.472656 L 115.566406 68.648438 L 73.8125 113.648438 L 0.339844 45.46875 Z M 42.09375 0.472656 " clip-rule="nonzero"/></clipPath><clipPath id="4b21da7055"><path d="M 43.195312 1.492188 L 114.328125 67.496094 C 114.933594 68.0625 114.96875 69.011719 114.40625 69.617188 L 74.691406 112.417969 C 74.128906 113.023438 73.179688 113.058594 72.574219 112.496094 L 1.4375 46.488281 C 0.832031 45.925781 0.796875 44.976562 1.359375 44.371094 L 41.074219 1.570312 C 41.636719 0.964844 42.585938 0.929688 43.195312 1.492188 Z M 43.195312 1.492188 " clip-rule="nonzero"/></clipPath><clipPath id="1bfe315bf1"><path d="M 0.640625 0 L 115 0 L 115 112 L 0.640625 112 Z M 0.640625 0 " clip-rule="nonzero"/></clipPath><clipPath id="b818185f7e"><path d="M 42.09375 -0.527344 L 115.566406 67.648438 L 73.8125 112.648438 L 0.339844 44.46875 Z M 42.09375 -0.527344 " clip-rule="nonzero"/></clipPath><clipPath id="63e06d82e5"><path d="M 43.195312 0.492188 L 114.328125 66.496094 C 114.933594 67.0625 114.96875 68.011719 114.40625 68.617188 L 74.691406 111.417969 C 74.128906 112.023438 73.179688 112.058594 72.574219 111.496094 L 1.4375 45.488281 C 0.832031 44.925781 0.796875 43.976562 1.359375 43.371094 L 41.074219 0.570312 C 41.636719 -0.0351562 42.585938 -0.0703125 43.195312 0.492188 Z M 43.195312 0.492188 " clip-rule="nonzero"/></clipPath><clipPath id="11f7954f3c"><rect x="0" width="115" y="0" height="112"/></clipPath><clipPath id="a8e7d0c504"><rect x="0" width="116" y="0" height="114"/></clipPath><clipPath id="ba881070a1"><path d="M 317 233 L 433 233 L 433 347 L 317 347 Z M 317 233 " clip-rule="nonzero"/></clipPath><clipPath id="16933a1daf"><path d="M 359.929688 232.878906 L 433.363281 301.019531 L 390.398438 347.320312 L 316.964844 279.179688 Z M 359.929688 232.878906 " clip-rule="nonzero"/></clipPath><clipPath id="79f53cf907"><path d="M 361.027344 233.898438 L 432.160156 299.902344 C 432.769531 300.46875 432.804688 301.417969 432.242188 302.023438 L 391.316406 346.128906 C 390.753906 346.734375 389.804688 346.769531 389.195312 346.207031 L 318.0625 280.199219 C 317.457031 279.636719 317.421875 278.6875 317.984375 278.082031 L 358.910156 233.976562 C 359.472656 233.371094 360.421875 233.335938 361.027344 233.898438 Z M 361.027344 233.898438 " clip-rule="nonzero"/></clipPath><clipPath id="ee80df7449"><path d="M 0.28125 0.28125 L 115.960938 0.28125 L 115.960938 113.800781 L 0.28125 113.800781 Z M 0.28125 0.28125 " clip-rule="nonzero"/></clipPath><clipPath id="d93665cc63"><path d="M 42.929688 -0.121094 L 116.363281 68.019531 L 73.398438 114.320312 L -0.0351562 46.179688 Z M 42.929688 -0.121094 " clip-rule="nonzero"/></clipPath><clipPath id="0537f60034"><path d="M 44.027344 0.898438 L 115.160156 66.902344 C 115.769531 67.46875 115.804688 68.417969 115.242188 69.023438 L 74.316406 113.128906 C 73.753906 113.734375 72.804688 113.769531 72.195312 113.207031 L 1.0625 47.199219 C 0.457031 46.636719 0.421875 45.6875 0.984375 45.082031 L 41.910156 0.976562 C 42.472656 0.371094 43.421875 0.335938 44.027344 0.898438 Z M 44.027344 0.898438 " clip-rule="nonzero"/></clipPath><clipPath id="d72e2655be"><rect x="0" width="116" y="0" height="114"/></clipPath><mask id="3592cf9523"><g filter="url(#dc75cc2855)"><rect x="-60" width="720" fill="#000000" y="-60" height="719.999999" fill-opacity="0.5"/></g></mask><clipPath id="7d7e08e191"><path d="M 0 1 L 144.960938 1 L 144.960938 146 L 0 146 Z M 0 1 " clip-rule="nonzero"/></clipPath><clipPath id="d9176bd736"><path d="M 72.875 1.050781 L 144.773438 67.765625 L 72.0625 146.128906 L 0.164062 79.410156 Z M 72.875 1.050781 " clip-rule="nonzero"/></clipPath><clipPath id="e10931041b"><path d="M 73.972656 2.070312 L 143.675781 66.746094 C 144.28125 67.308594 144.316406 68.257812 143.753906 68.867188 L 73.09375 145.015625 C 72.53125 145.621094 71.582031 145.65625 70.976562 145.09375 L 1.273438 80.417969 C 0.667969 79.855469 0.632812 78.90625 1.195312 78.296875 L 71.855469 2.148438 C 72.417969 1.542969 73.367188 1.507812 73.972656 2.070312 Z M 73.972656 2.070312 " clip-rule="nonzero"/></clipPath><clipPath id="9c48d7d8eb"><path d="M 0.480469 0.398438 L 144.480469 0.398438 L 144.480469 144.878906 L 0.480469 144.878906 Z M 0.480469 0.398438 " clip-rule="nonzero"/></clipPath><clipPath id="fcee4ffb6b"><path d="M 72.875 0.0507812 L 144.773438 66.765625 L 72.0625 145.128906 L 0.164062 78.410156 Z M 72.875 0.0507812 " clip-rule="nonzero"/></clipPath><clipPath id="dc719237f5"><path d="M 73.972656 1.070312 L 143.675781 65.746094 C 144.28125 66.308594 144.316406 67.257812 143.753906 67.867188 L 73.09375 144.015625 C 72.53125 144.621094 71.582031 144.65625 70.976562 144.09375 L 1.273438 79.417969 C 0.667969 78.855469 0.632812 77.90625 1.195312 77.296875 L 71.855469 1.148438 C 72.417969 0.542969 73.367188 0.507812 73.972656 1.070312 Z M 73.972656 1.070312 " clip-rule="nonzero"/></clipPath><clipPath id="409e516507"><rect x="0" width="145" y="0" height="145"/></clipPath><clipPath id="cf87593f86"><rect x="0" width="145" y="0" height="147"/></clipPath></defs><g clip-path="url(#919fdfc06a)"><g clip-path="url(#0fb06d9ec5)"><g transform="matrix(1, 0, 0, 1, 41, 41)"><g clip-path="url(#c01309cca3)"><g clip-path="url(#85f48790ee)"><g clip-path="url(#37dea3d74f)"><path fill="#d9d9d9" d="M 0.59375 0.59375 L 517.40625 0.59375 L 517.40625 517.40625 L 0.59375 517.40625 Z M 0.59375 0.59375 " fill-opacity="1" fill-rule="nonzero"/></g></g></g></g></g></g><g clip-path="url(#8448e30188)"><g clip-path="url(#f0ec10f9f2)"><g clip-path="url(#aad7c70899)"><g transform="matrix(1, 0, 0, 1, 267, 131)"><g clip-path="url(#dd5c45a8c7)"><g clip-path="url(#d4526a8c7d)"><g clip-path="url(#9585ee24db)"><g clip-path="url(#4832420300)"><path fill="#f7f7f4" d="M 188.835938 -1.496094 L 262.296875 66.667969 L 71.914062 271.835938 L -1.542969 203.671875 Z M 188.835938 -1.496094 " fill-opacity="1" fill-rule="nonzero"/></g></g></g></g></g></g></g></g><g clip-path="url(#0aab99a076)"><g clip-path="url(#bde66b5f3f)"><g clip-path="url(#8185ef1f40)"><g transform="matrix(1, 0, 0, 1, 317, 108)"><g clip-path="url(#2d902a54a6)"><g clip-path="url(#4e57327922)"><g clip-path="url(#a3f175fffd)"><g clip-path="url(#f0757cc39d)"><path fill="#2b71b2" d="M 159.226562 -0.453125 L 232.558594 67.59375 L 73.339844 239.179688 L 0.0078125 171.132812 Z M 159.226562 -0.453125 " fill-opacity="1" fill-rule="nonzero"/></g></g></g></g></g></g></g></g><g clip-path="url(#7b968aa7a4)"><g clip-path="url(#25c0e06986)"><g clip-path="url(#1971a4c13f)"><g transform="matrix(1, 0, 0, 1, 381, 73)"><g clip-path="url(#4149fee478)"><g clip-path="url(#385f2e94c1)"><g clip-path="url(#55e684478c)"><g clip-path="url(#2ba59cd91b)"><path fill="#2b71b2" d="M -1.808594 63.957031 L 198.441406 -0.644531 L 254.882812 174.316406 L 54.636719 238.917969 Z M -1.808594 63.957031 " fill-opacity="1" fill-rule="nonzero"/></g></g></g></g></g></g></g></g><g clip-path="url(#73a5728f47)"><g clip-path="url(#76f0ab3dcc)"><g clip-path="url(#a887777230)"><g transform="matrix(1, 0, 0, 1, 9, 272)"><g clip-path="url(#0395cc93c7)"><g clip-path="url(#9fad1e5963)"><g clip-path="url(#d88a5be019)"><g clip-path="url(#79ada52101)"><path fill="#cd3c36" d="M 158.511719 -1.0625 L 231.84375 66.984375 L 72.625 238.574219 L -0.707031 170.527344 Z M 158.511719 -1.0625 " fill-opacity="1" fill-rule="nonzero"/></g></g></g></g></g></g></g></g><g clip-path="url(#87ebec2815)"><g clip-path="url(#fdfdc8b1f7)"><g clip-path="url(#eca7ecb181)"><g transform="matrix(1, 0, 0, 1, 165, 203)"><g clip-path="url(#c7fcfd4c11)"><g clip-path="url(#bf785fc921)"><g clip-path="url(#0439bd39f7)"><g clip-path="url(#6fa437ed68)"><path fill="#f7f7f4" d="M -0.953125 71.253906 L 66.386719 -1.164062 L 224.792969 146.144531 L 157.453125 218.558594 Z M -0.953125 71.253906 " fill-opacity="1" fill-rule="nonzero"/></g></g></g></g></g></g></g></g><g mask="url(#4873d35859)"><g transform="matrix(1, 0, 0, 1, 90, 274)"><g clip-path="url(#dc4276cdf7)"><g clip-path="url(#4c5055a749)"><g clip-path="url(#aac2141816)"><g clip-path="url(#dfa395e7cf)"><g transform="matrix(1, 0, 0, 1, 1, 1)"><g clip-path="url(#0ed6cb063b)"><g clip-path="url(#67920cc809)"><g clip-path="url(#c5b8d15572)"><g clip-path="url(#2f6a5b0dc9)"><path fill="#bb3636" d="M 72.972656 -0.527344 L 146.425781 67.632812 L 73.207031 146.539062 L -0.246094 78.378906 Z M 72.972656 -0.527344 " fill-opacity="1" fill-rule="nonzero"/></g></g></g></g></g></g></g></g></g></g></g><g mask="url(#8d7ba3cd31)"><g transform="matrix(1, 0, 0, 1, 122, 274)"><g clip-path="url(#a8e7d0c504)"><g clip-path="url(#d073dc95e2)"><g clip-path="url(#de4daa1adc)"><g clip-path="url(#4b21da7055)"><g transform="matrix(1, 0, 0, 1, -0.000000000000014211, 1)"><g clip-path="url(#11f7954f3c)"><g clip-path="url(#1bfe315bf1)"><g clip-path="url(#b818185f7e)"><g clip-path="url(#63e06d82e5)"><path fill="#892a2a" d="M 42.09375 -0.527344 L 115.390625 67.484375 L 73.636719 112.484375 L 0.339844 44.46875 Z M 42.09375 -0.527344 " fill-opacity="1" fill-rule="nonzero"/></g></g></g></g></g></g></g></g></g></g></g><g clip-path="url(#ba881070a1)"><g clip-path="url(#16933a1daf)"><g clip-path="url(#79f53cf907)"><g transform="matrix(1, 0, 0, 1, 317, 233)"><g clip-path="url(#d72e2655be)"><g clip-path="url(#ee80df7449)"><g clip-path="url(#d93665cc63)"><g clip-path="url(#0537f60034)"><path fill="#2e5999" d="M 42.929688 -0.121094 L 116.179688 67.851562 L 73.214844 114.152344 L -0.0351562 46.179688 Z M 42.929688 -0.121094 " fill-opacity="1" fill-rule="nonzero"/></g></g></g></g></g></g></g></g><g mask="url(#3592cf9523)"><g transform="matrix(1, 0, 0, 1, 318, 199)"><g clip-path="url(#cf87593f86)"><g clip-path="url(#7d7e08e191)"><g clip-path="url(#d9176bd736)"><g clip-path="url(#e10931041b)"><g transform="matrix(1, 0, 0, 1, 0.000000000000056843, 1)"><g clip-path="url(#409e516507)"><g clip-path="url(#9c48d7d8eb)"><g clip-path="url(#fcee4ffb6b)"><g clip-path="url(#dc719237f5)"><path fill="#2e5999" d="M 72.875 0.0507812 L 144.773438 66.765625 L 72.0625 145.128906 L 0.164062 78.410156 Z M 72.875 0.0507812 " fill-opacity="1" fill-rule="nonzero"/></g></g></g></g></g></g></g></g></g></g></g></svg>