<svg xmlns="http://www.w3.org/2000/svg" xmlns:xlink="http://www.w3.org/1999/xlink" width="800" zoomAndPan="magnify" viewBox="0 0 600 599.999999" height="800" preserveAspectRatio="xMidYMid meet" version="1.0"><defs><filter x="0%" y="0%" width="100%" height="100%" id="b74bf5ae61"><feColorMatrix values="0 0 0 0 1 0 0 0 0 1 0 0 0 0 1 0 0 0 1 0" color-interpolation-filters="sRGB"/></filter><clipPath id="6868f730f5"><path d="M 9 259 L 292 259 L 292 552 L 9 552 Z M 9 259 " clip-rule="nonzero"/></clipPath><clipPath id="d64456ffb0"><path d="M 203.242188 258.359375 L 293.390625 342.011719 L 97.332031 553.300781 L 7.183594 469.648438 Z M 203.242188 258.359375 " clip-rule="nonzero"/></clipPath><clipPath id="338f01bc0c"><path d="M 205.992188 260.910156 L 290.640625 339.460938 C 292.160156 340.871094 292.25 343.242188 290.839844 344.761719 L 100.15625 550.257812 C 98.746094 551.777344 96.375 551.863281 94.855469 550.457031 L 10.207031 471.90625 C 8.6875 470.496094 8.597656 468.125 10.007812 466.605469 L 200.691406 261.109375 C 202.101562 259.59375 204.472656 259.503906 205.992188 260.910156 Z M 205.992188 260.910156 " clip-rule="nonzero"/></clipPath><clipPath id="2fa3f81e57"><path d="M 0 0.441406 L 283 0.441406 L 283 293 L 0 293 Z M 0 0.441406 " clip-rule="nonzero"/></clipPath><clipPath id="25ad20226d"><path d="M 194.242188 -0.640625 L 284.390625 83.011719 L 88.332031 294.300781 L -1.816406 210.648438 Z M 194.242188 -0.640625 " clip-rule="nonzero"/></clipPath><clipPath id="f279819dd7"><path d="M 196.992188 1.910156 L 281.640625 80.460938 C 283.160156 81.871094 283.25 84.242188 281.839844 85.761719 L 91.15625 291.257812 C 89.746094 292.777344 87.375 292.863281 85.855469 291.457031 L 1.207031 212.90625 C -0.3125 211.496094 -0.402344 209.125 1.007812 207.605469 L 191.691406 2.109375 C 193.101562 0.59375 195.472656 0.503906 196.992188 1.910156 Z M 196.992188 1.910156 " clip-rule="nonzero"/></clipPath><clipPath id="2d808ec0ba"><rect x="0" width="283" y="0" height="293"/></clipPath><mask id="49c22f2d4d"><g filter="url(#b74bf5ae61)"><rect x="-60" width="720" fill="#000000" y="-60" height="719.999999" fill-opacity="0.47"/></g></mask><clipPath id="60b9cdf7d9"><path d="M 1 1 L 181 1 L 181 182 L 1 182 Z M 1 1 " clip-rule="nonzero"/></clipPath><clipPath id="2a691c7dfd"><path d="M 90.890625 0.703125 L 181.1875 84.496094 L 90.851562 181.847656 L 0.554688 98.058594 Z M 90.890625 0.703125 " clip-rule="nonzero"/></clipPath><clipPath id="9a9004a735"><path d="M 91.988281 1.722656 L 180.089844 83.472656 C 180.382812 83.746094 180.554688 84.121094 180.566406 84.519531 C 180.582031 84.914062 180.441406 85.300781 180.167969 85.59375 L 92.078125 180.527344 C 91.804688 180.820312 91.429688 180.992188 91.035156 181.007812 C 90.636719 181.023438 90.25 180.878906 89.957031 180.609375 L 1.855469 98.859375 C 1.566406 98.585938 1.394531 98.210938 1.378906 97.816406 C 1.363281 97.417969 1.507812 97.03125 1.777344 96.738281 L 89.871094 1.804688 C 90.140625 1.511719 90.515625 1.339844 90.914062 1.324219 C 91.3125 1.308594 91.699219 1.453125 91.988281 1.722656 Z M 91.988281 1.722656 " clip-rule="nonzero"/></clipPath><clipPath id="03912c208a"><path d="M 0.199219 0.28125 L 179.71875 0.28125 L 179.71875 180.039062 L 0.199219 180.039062 Z M 0.199219 0.28125 " clip-rule="nonzero"/></clipPath><clipPath id="09c437c3fd"><path d="M 89.890625 -0.296875 L 180.1875 83.496094 L 89.851562 180.847656 L -0.445312 97.058594 Z M 89.890625 -0.296875 " clip-rule="nonzero"/></clipPath><clipPath id="0ebe73d32b"><path d="M 90.988281 0.722656 L 179.089844 82.472656 C 179.382812 82.746094 179.554688 83.121094 179.566406 83.519531 C 179.582031 83.914062 179.441406 84.300781 179.167969 84.59375 L 91.078125 179.527344 C 90.804688 179.820312 90.429688 179.992188 90.035156 180.007812 C 89.636719 180.023438 89.25 179.878906 88.957031 179.609375 L 0.855469 97.859375 C 0.566406 97.585938 0.394531 97.210938 0.378906 96.816406 C 0.363281 96.417969 0.507812 96.03125 0.777344 95.738281 L 88.871094 0.804688 C 89.140625 0.511719 89.515625 0.339844 89.914062 0.324219 C 90.3125 0.308594 90.699219 0.453125 90.988281 0.722656 Z M 90.988281 0.722656 " clip-rule="nonzero"/></clipPath><clipPath id="aab651821a"><rect x="0" width="180" y="0" height="181"/></clipPath><clipPath id="1d0dcf81f3"><rect x="0" width="182" y="0" height="182"/></clipPath><mask id="690923b657"><g filter="url(#b74bf5ae61)"><rect x="-60" width="720" fill="#000000" y="-60" height="719.999999" fill-opacity="0.28"/></g></mask><clipPath id="9ad1e74b90"><path d="M 0 1 L 338 1 L 338 352.800781 L 0 352.800781 Z M 0 1 " clip-rule="nonzero"/></clipPath><clipPath id="44b6e88909"><path d="M 240.371094 0.921875 L 338.542969 92.015625 L 96.574219 352.777344 L -1.59375 261.683594 Z M 240.371094 0.921875 " clip-rule="nonzero"/></clipPath><clipPath id="6ad15c580b"><path d="M 241.472656 1.941406 L 337.441406 90.996094 C 337.734375 91.265625 337.90625 91.640625 337.921875 92.039062 C 337.933594 92.4375 337.792969 92.824219 337.519531 93.117188 L 97.726562 351.539062 C 97.453125 351.832031 97.078125 352.003906 96.679688 352.015625 C 96.285156 352.03125 95.894531 351.890625 95.605469 351.617188 L -0.363281 262.566406 C -0.65625 262.292969 -0.828125 261.917969 -0.84375 261.523438 C -0.859375 261.125 -0.714844 260.738281 -0.445312 260.445312 L 239.351562 2.023438 C 239.621094 1.730469 239.996094 1.558594 240.394531 1.542969 C 240.792969 1.527344 241.179688 1.671875 241.472656 1.941406 Z M 241.472656 1.941406 " clip-rule="nonzero"/></clipPath><clipPath id="4a22d02db1"><path d="M 0 0.441406 L 338 0.441406 L 338 351.078125 L 0 351.078125 Z M 0 0.441406 " clip-rule="nonzero"/></clipPath><clipPath id="bc6f2d7e15"><path d="M 240.371094 -0.078125 L 338.542969 91.015625 L 96.574219 351.777344 L -1.59375 260.683594 Z M 240.371094 -0.078125 " clip-rule="nonzero"/></clipPath><clipPath id="1282eaffdc"><path d="M 241.472656 0.941406 L 337.441406 89.996094 C 337.734375 90.265625 337.90625 90.640625 337.921875 91.039062 C 337.933594 91.4375 337.792969 91.824219 337.519531 92.117188 L 97.726562 350.539062 C 97.453125 350.832031 97.078125 351.003906 96.679688 351.015625 C 96.285156 351.03125 95.894531 350.890625 95.605469 350.617188 L -0.363281 261.566406 C -0.65625 261.292969 -0.828125 260.917969 -0.84375 260.523438 C -0.859375 260.125 -0.714844 259.738281 -0.445312 259.445312 L 239.351562 1.023438 C 239.621094 0.730469 239.996094 0.558594 240.394531 0.542969 C 240.792969 0.527344 241.179688 0.671875 241.472656 0.941406 Z M 241.472656 0.941406 " clip-rule="nonzero"/></clipPath><clipPath id="bed631dc17"><rect x="0" width="338" y="0" height="352"/></clipPath><clipPath id="b01611c4bb"><rect x="0" width="339" y="0" height="353"/></clipPath><clipPath id="7d55d49a52"><path d="M 268 156 L 529 156 L 529 427 L 268 427 Z M 268 156 " clip-rule="nonzero"/></clipPath><clipPath id="d1d3e5b7cd"><path d="M 456.707031 155.191406 L 530.023438 223.222656 L 340.011719 427.996094 L 266.691406 359.960938 Z M 456.707031 155.191406 " clip-rule="nonzero"/></clipPath><clipPath id="060e7103a6"><path d="M 459.453125 157.742188 L 527.273438 220.671875 C 528.003906 221.347656 528.433594 222.285156 528.472656 223.28125 C 528.507812 224.273438 528.148438 225.242188 527.472656 225.972656 L 342.613281 425.1875 C 341.9375 425.917969 341 426.347656 340.003906 426.386719 C 339.011719 426.421875 338.042969 426.0625 337.316406 425.386719 L 269.496094 362.457031 C 268.765625 361.777344 268.335938 360.839844 268.296875 359.847656 C 268.261719 358.851562 268.621094 357.886719 269.296875 357.15625 L 454.15625 157.9375 C 454.832031 157.210938 455.769531 156.777344 456.765625 156.742188 C 457.757812 156.703125 458.726562 157.0625 459.453125 157.742188 Z M 459.453125 157.742188 " clip-rule="nonzero"/></clipPath><clipPath id="829bd8d472"><path d="M 0.078125 0.480469 L 260.71875 0.480469 L 260.71875 270.480469 L 0.078125 270.480469 Z M 0.078125 0.480469 " clip-rule="nonzero"/></clipPath><clipPath id="ac3c7e0a4c"><path d="M 188.707031 -0.808594 L 262.023438 67.222656 L 72.011719 271.996094 L -1.308594 203.960938 Z M 188.707031 -0.808594 " clip-rule="nonzero"/></clipPath><clipPath id="769dcb57c1"><path d="M 191.453125 1.742188 L 259.273438 64.671875 C 260.003906 65.347656 260.433594 66.285156 260.472656 67.28125 C 260.507812 68.273438 260.148438 69.242188 259.472656 69.972656 L 74.613281 269.1875 C 73.9375 269.917969 73 270.347656 72.003906 270.386719 C 71.011719 270.421875 70.042969 270.0625 69.316406 269.386719 L 1.496094 206.457031 C 0.765625 205.777344 0.335938 204.839844 0.296875 203.847656 C 0.261719 202.851562 0.621094 201.886719 1.296875 201.15625 L 186.15625 1.9375 C 186.832031 1.210938 187.769531 0.777344 188.765625 0.742188 C 189.757812 0.703125 190.726562 1.0625 191.453125 1.742188 Z M 191.453125 1.742188 " clip-rule="nonzero"/></clipPath><clipPath id="0a703e9db7"><rect x="0" width="261" y="0" height="271"/></clipPath><mask id="3d10c09d4d"><g filter="url(#b74bf5ae61)"><rect x="-60" width="720" fill="#000000" y="-60" height="719.999999" fill-opacity="0.5"/></g></mask><clipPath id="aed9a28075"><path d="M 0 0.078125 L 267 0.078125 L 267 273 L 0 273 Z M 0 0.078125 " clip-rule="nonzero"/></clipPath><clipPath id="6d588617e0"><path d="M 172.015625 0.171875 L 267.285156 88.574219 L 95.3125 273.902344 L 0.0429688 185.5 Z M 172.015625 0.171875 " clip-rule="nonzero"/></clipPath><clipPath id="a29d006a5b"><path d="M 173.113281 1.191406 L 266.183594 87.554688 C 266.792969 88.117188 266.828125 89.066406 266.265625 89.671875 L 96.660156 272.449219 C 96.097656 273.054688 95.148438 273.089844 94.542969 272.527344 L 1.472656 186.167969 C 0.863281 185.601562 0.828125 184.652344 1.390625 184.046875 L 170.996094 1.269531 C 171.558594 0.664062 172.507812 0.628906 173.113281 1.191406 Z M 173.113281 1.191406 " clip-rule="nonzero"/></clipPath><clipPath id="fef05694c4"><path d="M 0.71875 0.558594 L 266.878906 0.558594 L 266.878906 273 L 0.71875 273 Z M 0.71875 0.558594 " clip-rule="nonzero"/></clipPath><clipPath id="b57ba36c30"><path d="M 172.015625 0.171875 L 267.285156 88.574219 L 95.3125 273.902344 L 0.0429688 185.5 Z M 172.015625 0.171875 " clip-rule="nonzero"/></clipPath><clipPath id="17b10bc9ef"><path d="M 173.113281 1.191406 L 266.183594 87.554688 C 266.792969 88.117188 266.828125 89.066406 266.265625 89.671875 L 96.660156 272.449219 C 96.097656 273.054688 95.148438 273.089844 94.542969 272.527344 L 1.472656 186.167969 C 0.863281 185.601562 0.828125 184.652344 1.390625 184.046875 L 170.996094 1.269531 C 171.558594 0.664062 172.507812 0.628906 173.113281 1.191406 Z M 173.113281 1.191406 " clip-rule="nonzero"/></clipPath><clipPath id="4084ba960f"><rect x="0" width="267" y="0" height="273"/></clipPath><clipPath id="2f096cd117"><rect x="0" width="268" y="0" height="274"/></clipPath><clipPath id="ac100eca4c"><path d="M 301 121 L 547 121 L 547 372 L 301 372 Z M 301 121 " clip-rule="nonzero"/></clipPath><clipPath id="5409329e38"><path d="M 458 121.109375 L 546.828125 203.53125 L 389.707031 372.851562 L 300.882812 290.429688 Z M 458 121.109375 " clip-rule="nonzero"/></clipPath><clipPath id="d560cb44cd"><path d="M 459.101562 122.128906 L 545.726562 202.511719 C 546.335938 203.074219 546.371094 204.023438 545.804688 204.628906 L 391.015625 371.445312 C 390.449219 372.054688 389.503906 372.089844 388.894531 371.523438 L 302.269531 291.144531 C 301.660156 290.578125 301.625 289.628906 302.191406 289.023438 L 456.980469 122.207031 C 457.542969 121.601562 458.492188 121.566406 459.101562 122.128906 Z M 459.101562 122.128906 " clip-rule="nonzero"/></clipPath><clipPath id="f302577a04"><path d="M 0.441406 0.441406 L 245.480469 0.441406 L 245.480469 251 L 0.441406 251 Z M 0.441406 0.441406 " clip-rule="nonzero"/></clipPath><clipPath id="d3fba6476e"><path d="M 157 0.109375 L 245.828125 82.53125 L 88.707031 251.851562 L -0.117188 169.429688 Z M 157 0.109375 " clip-rule="nonzero"/></clipPath><clipPath id="1d92a02f97"><path d="M 158.101562 1.128906 L 244.726562 81.511719 C 245.335938 82.074219 245.371094 83.023438 244.804688 83.628906 L 90.015625 250.445312 C 89.449219 251.054688 88.503906 251.089844 87.894531 250.523438 L 1.269531 170.144531 C 0.660156 169.578125 0.625 168.628906 1.191406 168.023438 L 155.980469 1.207031 C 156.542969 0.601562 157.492188 0.566406 158.101562 1.128906 Z M 158.101562 1.128906 " clip-rule="nonzero"/></clipPath><clipPath id="e830bb2571"><rect x="0" width="246" y="0" height="251"/></clipPath><clipPath id="a64127970a"><path d="M 301 234 L 442 234 L 442 372 L 301 372 Z M 301 234 " clip-rule="nonzero"/></clipPath><clipPath id="4073e02202"><path d="M 353.210938 234.035156 L 442.15625 316.574219 L 390.113281 372.65625 L 301.167969 290.121094 Z M 353.210938 234.035156 " clip-rule="nonzero"/></clipPath><clipPath id="9538853c69"><path d="M 354.308594 235.058594 L 440.933594 315.4375 C 441.542969 316.003906 441.578125 316.953125 441.015625 317.558594 L 391.011719 371.445312 C 390.449219 372.050781 389.5 372.085938 388.890625 371.523438 L 302.265625 291.140625 C 301.660156 290.578125 301.625 289.628906 302.1875 289.023438 L 352.1875 235.136719 C 352.753906 234.527344 353.703125 234.492188 354.308594 235.058594 Z M 354.308594 235.058594 " clip-rule="nonzero"/></clipPath><clipPath id="689fb70179"><path d="M 0.441406 0.480469 L 140.601562 0.480469 L 140.601562 138 L 0.441406 138 Z M 0.441406 0.480469 " clip-rule="nonzero"/></clipPath><clipPath id="03ab79a678"><path d="M 52.210938 0.0351562 L 141.15625 82.574219 L 89.113281 138.65625 L 0.167969 56.121094 Z M 52.210938 0.0351562 " clip-rule="nonzero"/></clipPath><clipPath id="030292c42c"><path d="M 53.308594 1.058594 L 139.933594 81.4375 C 140.542969 82.003906 140.578125 82.953125 140.015625 83.558594 L 90.011719 137.445312 C 89.449219 138.050781 88.5 138.085938 87.890625 137.523438 L 1.265625 57.140625 C 0.660156 56.578125 0.625 55.628906 1.1875 55.023438 L 51.1875 1.136719 C 51.753906 0.527344 52.703125 0.492188 53.308594 1.058594 Z M 53.308594 1.058594 " clip-rule="nonzero"/></clipPath><clipPath id="c1d641d9c9"><rect x="0" width="141" y="0" height="138"/></clipPath><mask id="c91cecfb72"><g filter="url(#b74bf5ae61)"><rect x="-60" width="720" fill="#000000" y="-60" height="719.999999" fill-opacity="0.43"/></g></mask><clipPath id="ecd3c6f788"><path d="M 3 2 L 249 2 L 249 261 L 3 261 Z M 3 2 " clip-rule="nonzero"/></clipPath><clipPath id="55a28ca2ba"><path d="M 1.84375 96.511719 L 247.988281 1.6875 L 329.636719 213.621094 L 83.492188 308.449219 Z M 1.84375 96.511719 " clip-rule="nonzero"/></clipPath><clipPath id="289f681bae"><path d="M 204.574219 260.246094 L 3.933594 99.183594 C 3.332031 98.699219 3.03125 97.929688 3.152344 97.167969 C 3.269531 96.40625 3.789062 95.765625 4.507812 95.488281 L 245.910156 2.488281 C 246.632812 2.210938 247.445312 2.339844 248.042969 2.824219 C 248.644531 3.308594 248.9375 4.078125 248.816406 4.839844 L 208.09375 258.890625 C 207.972656 259.65625 207.449219 260.300781 206.722656 260.578125 C 206 260.859375 205.179688 260.730469 204.574219 260.246094 Z M 204.574219 260.246094 " clip-rule="nonzero"/></clipPath><clipPath id="897c9613b3"><path d="M 0 0.160156 L 245.960938 0.160156 L 245.960938 258.878906 L 0 258.878906 Z M 0 0.160156 " clip-rule="nonzero"/></clipPath><clipPath id="926eb6e7b6"><path d="M -1.15625 94.511719 L 244.988281 -0.3125 L 326.636719 211.621094 L 80.492188 306.449219 Z M -1.15625 94.511719 " clip-rule="nonzero"/></clipPath><clipPath id="57fd30e612"><path d="M 201.574219 258.246094 L 0.933594 97.183594 C 0.332031 96.699219 0.03125 95.929688 0.152344 95.167969 C 0.269531 94.40625 0.789062 93.765625 1.507812 93.488281 L 242.910156 0.488281 C 243.632812 0.210938 244.445312 0.339844 245.042969 0.824219 C 245.644531 1.308594 245.9375 2.078125 245.816406 2.839844 L 205.09375 256.890625 C 204.972656 257.65625 204.449219 258.300781 203.722656 258.578125 C 203 258.859375 202.179688 258.730469 201.574219 258.246094 Z M 201.574219 258.246094 " clip-rule="nonzero"/></clipPath><clipPath id="1eae58cc6f"><rect x="0" width="246" y="0" height="259"/></clipPath><clipPath id="a04a87ea17"><rect x="0" width="266" y="0" height="311"/></clipPath><clipPath id="cff3fc983b"><path d="M 344 61 L 579 61 L 579 311 L 344 311 Z M 344 61 " clip-rule="nonzero"/></clipPath><clipPath id="b3c17c79f3"><path d="M 342.941406 151.042969 L 577.578125 60.648438 L 656.480469 265.453125 L 421.84375 355.847656 Z M 342.941406 151.042969 " clip-rule="nonzero"/></clipPath><clipPath id="164b9611e9"><path d="M 537.007812 309.84375 L 345.046875 153.71875 C 344.445312 153.230469 344.148438 152.457031 344.269531 151.691406 C 344.394531 150.925781 344.914062 150.285156 345.636719 150.003906 L 575.15625 61.585938 C 575.878906 61.304688 576.695312 61.433594 577.300781 61.917969 C 577.902344 62.40625 578.203125 63.175781 578.085938 63.941406 L 540.484375 308.503906 C 540.371094 309.265625 539.855469 309.90625 539.136719 310.183594 C 538.417969 310.457031 537.605469 310.328125 537.007812 309.84375 Z M 537.007812 309.84375 " clip-rule="nonzero"/></clipPath><clipPath id="94fd68f32b"><path d="M 0 0.199219 L 234.398438 0.199219 L 234.398438 249.558594 L 0 249.558594 Z M 0 0.199219 " clip-rule="nonzero"/></clipPath><clipPath id="ea269b473b"><path d="M -1.058594 90.042969 L 233.578125 -0.351562 L 312.480469 204.453125 L 77.84375 294.847656 Z M -1.058594 90.042969 " clip-rule="nonzero"/></clipPath><clipPath id="a50415a145"><path d="M 193.007812 248.84375 L 1.046875 92.71875 C 0.445312 92.230469 0.148438 91.457031 0.269531 90.691406 C 0.394531 89.925781 0.914062 89.285156 1.636719 89.003906 L 231.15625 0.585938 C 231.878906 0.304688 232.695312 0.433594 233.300781 0.917969 C 233.902344 1.40625 234.203125 2.175781 234.085938 2.941406 L 196.484375 247.503906 C 196.371094 248.265625 195.855469 248.90625 195.136719 249.183594 C 194.417969 249.457031 193.605469 249.328125 193.007812 248.84375 Z M 193.007812 248.84375 " clip-rule="nonzero"/></clipPath><clipPath id="e7525e027c"><rect x="0" width="235" y="0" height="250"/></clipPath><clipPath id="bbc36b2d37"><path d="M 166 220 L 397 220 L 397 446 L 166 446 Z M 166 220 " clip-rule="nonzero"/></clipPath><clipPath id="e404c51712"><path d="M 164.996094 299.207031 L 239.71875 218.851562 L 398.542969 366.550781 L 323.820312 446.902344 Z M 164.996094 299.207031 " clip-rule="nonzero"/></clipPath><clipPath id="6e97a4ca3d"><path d="M 167.546875 296.460938 L 237.164062 221.597656 C 237.839844 220.871094 238.78125 220.441406 239.773438 220.40625 C 240.769531 220.371094 241.734375 220.730469 242.464844 221.40625 L 395.644531 363.851562 C 396.371094 364.527344 396.800781 365.46875 396.835938 366.460938 C 396.871094 367.453125 396.511719 368.421875 395.835938 369.152344 L 326.21875 444.011719 C 325.542969 444.742188 324.601562 445.171875 323.609375 445.207031 C 322.613281 445.242188 321.648438 444.882812 320.917969 444.207031 L 167.742188 301.761719 C 167.011719 301.085938 166.582031 300.144531 166.546875 299.152344 C 166.511719 298.15625 166.871094 297.191406 167.546875 296.460938 Z M 167.546875 296.460938 " clip-rule="nonzero"/></clipPath><clipPath id="96811a3e75"><path d="M 0.320312 0.320312 L 230.960938 0.320312 L 230.960938 225.441406 L 0.320312 225.441406 Z M 0.320312 0.320312 " clip-rule="nonzero"/></clipPath><clipPath id="0eb7f9f86d"><path d="M -1.003906 79.207031 L 73.71875 -1.148438 L 232.542969 146.550781 L 157.820312 226.902344 Z M -1.003906 79.207031 " clip-rule="nonzero"/></clipPath><clipPath id="8d03ae3ac5"><path d="M 1.546875 76.460938 L 71.164062 1.597656 C 71.839844 0.871094 72.78125 0.441406 73.773438 0.40625 C 74.769531 0.371094 75.734375 0.730469 76.464844 1.40625 L 229.644531 143.851562 C 230.371094 144.527344 230.800781 145.46875 230.835938 146.460938 C 230.871094 147.453125 230.511719 148.421875 229.835938 149.152344 L 160.21875 224.011719 C 159.542969 224.742188 158.601562 225.171875 157.609375 225.207031 C 156.613281 225.242188 155.648438 224.882812 154.917969 224.207031 L 1.742188 81.761719 C 1.011719 81.085938 0.582031 80.144531 0.546875 79.152344 C 0.511719 78.15625 0.871094 77.191406 1.546875 76.460938 Z M 1.546875 76.460938 " clip-rule="nonzero"/></clipPath><clipPath id="67517d84b9"><rect x="0" width="231" y="0" height="226"/></clipPath><mask id="259e80f068"><g filter="url(#b74bf5ae61)"><rect x="-60" width="720" fill="#000000" y="-60" height="719.999999" fill-opacity="0.5"/></g></mask><clipPath id="bfad95c137"><path d="M 1 1 L 157 1 L 157 156 L 1 156 Z M 1 1 " clip-rule="nonzero"/></clipPath><clipPath id="4d7a3c2cc8"><path d="M 66.976562 0.925781 L 157.238281 84.679688 L 91.0625 156 L 0.800781 72.242188 Z M 66.976562 0.925781 " clip-rule="nonzero"/></clipPath><clipPath id="251fa1b885"><path d="M 68.078125 1.945312 L 156.089844 83.613281 C 156.695312 84.179688 156.730469 85.128906 156.167969 85.734375 L 92.03125 154.851562 C 91.46875 155.460938 90.519531 155.496094 89.910156 154.933594 L 1.898438 73.261719 C 1.292969 72.699219 1.257812 71.75 1.820312 71.144531 L 65.957031 2.023438 C 66.519531 1.417969 67.46875 1.382812 68.078125 1.945312 Z M 68.078125 1.945312 " clip-rule="nonzero"/></clipPath><clipPath id="8ae538e0e2"><path d="M 0.160156 0.199219 L 155.921875 0.199219 L 155.921875 154.519531 L 0.160156 154.519531 Z M 0.160156 0.199219 " clip-rule="nonzero"/></clipPath><clipPath id="950603dd21"><path d="M 65.976562 -0.0742188 L 156.238281 83.679688 L 90.0625 155 L -0.199219 71.242188 Z M 65.976562 -0.0742188 " clip-rule="nonzero"/></clipPath><clipPath id="b64973a9d6"><path d="M 67.078125 0.945312 L 155.089844 82.613281 C 155.695312 83.179688 155.730469 84.128906 155.167969 84.734375 L 91.03125 153.851562 C 90.46875 154.460938 89.519531 154.496094 88.910156 153.933594 L 0.898438 72.261719 C 0.292969 71.699219 0.257812 70.75 0.820312 70.144531 L 64.957031 1.023438 C 65.519531 0.417969 66.46875 0.382812 67.078125 0.945312 Z M 67.078125 0.945312 " clip-rule="nonzero"/></clipPath><clipPath id="66632051e7"><rect x="0" width="156" y="0" height="155"/></clipPath><clipPath id="8b2139abdf"><rect x="0" width="158" y="0" height="156"/></clipPath></defs><g clip-path="url(#6868f730f5)"><g clip-path="url(#d64456ffb0)"><g clip-path="url(#338f01bc0c)"><g transform="matrix(1, 0, 0, 1, 9, 259)"><g clip-path="url(#2d808ec0ba)"><g clip-path="url(#2fa3f81e57)"><g clip-path="url(#25ad20226d)"><g clip-path="url(#f279819dd7)"><path fill="#cd3c36" d="M 194.242188 -0.640625 L 284.390625 83.011719 L 88.660156 293.949219 L -1.488281 210.296875 Z M 194.242188 -0.640625 " fill-opacity="1" fill-rule="nonzero"/></g></g></g></g></g></g></g></g><g mask="url(#49c22f2d4d)"><g transform="matrix(1, 0, 0, 1, 108, 262)"><g clip-path="url(#1d0dcf81f3)"><g clip-path="url(#60b9cdf7d9)"><g clip-path="url(#2a691c7dfd)"><g clip-path="url(#9a9004a735)"><g transform="matrix(1, 0, 0, 1, 1, 1)"><g clip-path="url(#aab651821a)"><g clip-path="url(#03912c208a)"><g clip-path="url(#09c437c3fd)"><g clip-path="url(#0ebe73d32b)"><path fill="#bb3636" d="M 89.890625 -0.296875 L 180.1875 83.496094 L 90.179688 180.496094 L -0.117188 96.703125 Z M 89.890625 -0.296875 " fill-opacity="1" fill-rule="nonzero"/></g></g></g></g></g></g></g></g></g></g></g><g mask="url(#690923b657)"><g transform="matrix(1, 0, 0, 1, 0, 210)"><g clip-path="url(#b01611c4bb)"><g clip-path="url(#9ad1e74b90)"><g clip-path="url(#44b6e88909)"><g clip-path="url(#6ad15c580b)"><g transform="matrix(1, 0, 0, 1, 0, 1)"><g clip-path="url(#bed631dc17)"><g clip-path="url(#4a22d02db1)"><g clip-path="url(#bc6f2d7e15)"><g clip-path="url(#1282eaffdc)"><path fill="#892a2a" d="M 240.371094 -0.078125 L 338.542969 91.015625 L 96.574219 351.777344 L -1.59375 260.683594 Z M 240.371094 -0.078125 " fill-opacity="1" fill-rule="nonzero"/></g></g></g></g></g></g></g></g></g></g></g><g clip-path="url(#7d55d49a52)"><g clip-path="url(#d1d3e5b7cd)"><g clip-path="url(#060e7103a6)"><g transform="matrix(1, 0, 0, 1, 268, 156)"><g clip-path="url(#0a703e9db7)"><g clip-path="url(#829bd8d472)"><g clip-path="url(#ac3c7e0a4c)"><g clip-path="url(#769dcb57c1)"><path fill="#f7f7f4" d="M 188.707031 -0.808594 L 262.023438 67.222656 L 72.011719 271.996094 L -1.308594 203.960938 Z M 188.707031 -0.808594 " fill-opacity="1" fill-rule="nonzero"/></g></g></g></g></g></g></g></g><g mask="url(#3d10c09d4d)"><g transform="matrix(1, 0, 0, 1, 228, 178)"><g clip-path="url(#2f096cd117)"><g clip-path="url(#aed9a28075)"><g clip-path="url(#6d588617e0)"><g clip-path="url(#a29d006a5b)"><g transform="matrix(1, 0, 0, 1, 0, -0.000000000000028422)"><g clip-path="url(#4084ba960f)"><g clip-path="url(#fef05694c4)"><g clip-path="url(#b57ba36c30)"><g clip-path="url(#17b10bc9ef)"><path fill="#2e5999" d="M 172.015625 0.171875 L 267.285156 88.574219 L 95.660156 273.53125 L 0.390625 185.128906 Z M 172.015625 0.171875 " fill-opacity="1" fill-rule="nonzero"/></g></g></g></g></g></g></g></g></g></g></g><g clip-path="url(#ac100eca4c)"><g clip-path="url(#5409329e38)"><g clip-path="url(#d560cb44cd)"><g transform="matrix(1, 0, 0, 1, 301, 121)"><g clip-path="url(#e830bb2571)"><g clip-path="url(#f302577a04)"><g clip-path="url(#d3fba6476e)"><g clip-path="url(#1d92a02f97)"><path fill="#2b71b2" d="M 157 0.109375 L 245.828125 82.53125 L 89.03125 251.507812 L 0.207031 169.082031 Z M 157 0.109375 " fill-opacity="1" fill-rule="nonzero"/></g></g></g></g></g></g></g></g><g clip-path="url(#a64127970a)"><g clip-path="url(#4073e02202)"><g clip-path="url(#9538853c69)"><g transform="matrix(1, 0, 0, 1, 301, 234)"><g clip-path="url(#c1d641d9c9)"><g clip-path="url(#689fb70179)"><g clip-path="url(#03ab79a678)"><g clip-path="url(#030292c42c)"><path fill="#2e5999" d="M 52.210938 0.0351562 L 140.9375 82.371094 L 88.894531 138.453125 L 0.167969 56.121094 Z M 52.210938 0.0351562 " fill-opacity="1" fill-rule="nonzero"/></g></g></g></g></g></g></g></g><g mask="url(#c91cecfb72)"><g transform="matrix(1, 0, 0, 1, 334, 54)"><g clip-path="url(#a04a87ea17)"><g clip-path="url(#ecd3c6f788)"><g clip-path="url(#55a28ca2ba)"><g clip-path="url(#289f681bae)"><g transform="matrix(1, 0, 0, 1, 3, 2)"><g clip-path="url(#1eae58cc6f)"><g clip-path="url(#897c9613b3)"><g clip-path="url(#926eb6e7b6)"><g clip-path="url(#57fd30e612)"><path fill="#2b71b2" d="M -1.992188 94.835938 L 246.660156 -0.957031 L 328.949219 212.648438 L 80.300781 308.441406 Z M -1.992188 94.835938 " fill-opacity="1" fill-rule="nonzero"/></g></g></g></g></g></g></g></g></g></g></g><g clip-path="url(#cff3fc983b)"><g clip-path="url(#b3c17c79f3)"><g clip-path="url(#164b9611e9)"><g transform="matrix(1, 0, 0, 1, 344, 61)"><g clip-path="url(#e7525e027c)"><g clip-path="url(#94fd68f32b)"><g clip-path="url(#ea269b473b)"><g clip-path="url(#a50415a145)"><path fill="#2b71b2" d="M -1.863281 90.355469 L 234.386719 -0.660156 L 313.90625 205.753906 L 77.65625 296.769531 Z M -1.863281 90.355469 " fill-opacity="1" fill-rule="nonzero"/></g></g></g></g></g></g></g></g><g clip-path="url(#bbc36b2d37)"><g clip-path="url(#e404c51712)"><g clip-path="url(#6e97a4ca3d)"><g transform="matrix(1, 0, 0, 1, 166, 220)"><g clip-path="url(#67517d84b9)"><g clip-path="url(#96811a3e75)"><g clip-path="url(#0eb7f9f86d)"><g clip-path="url(#8d03ae3ac5)"><path fill="#f7f7f4" d="M -1.003906 79.207031 L 73.71875 -1.148438 L 232.542969 146.550781 L 157.820312 226.902344 Z M -1.003906 79.207031 " fill-opacity="1" fill-rule="nonzero"/></g></g></g></g></g></g></g></g><g mask="url(#259e80f068)"><g transform="matrix(1, 0, 0, 1, 307, 210)"><g clip-path="url(#8b2139abdf)"><g clip-path="url(#bfad95c137)"><g clip-path="url(#4d7a3c2cc8)"><g clip-path="url(#251fa1b885)"><g transform="matrix(1, 0, 0, 1, 1, 1)"><g clip-path="url(#66632051e7)"><g clip-path="url(#8ae538e0e2)"><g clip-path="url(#950603dd21)"><g clip-path="url(#b64973a9d6)"><path fill="#2e5999" d="M 65.976562 -0.0742188 L 156.238281 83.679688 L 90.0625 155 L -0.199219 71.242188 Z M 65.976562 -0.0742188 " fill-opacity="1" fill-rule="nonzero"/></g></g></g></g></g></g></g></g></g></g></g></svg>